<?xml version="1.0" ?><svg style="enable-background:new 0 0 32 32;" version="1.1" viewBox="0 0 32 32" xml:space="preserve" xmlns="http://www.w3.org/2000/svg" xmlns:xlink="http://www.w3.org/1999/xlink"><style type="text/css">
	.st0{display:none;}
	.st1{display:inline;}
	.st2{fill:#0097E2;}
	.st3{fill:#3A3A3A;}
</style><g class="st0" id="grid"/><g id="icon"><g><path class="st3" d="M31,16c0,0.55-0.45,1-1,1H4.41l-1-1l1-1H30C30.55,15,31,15.45,31,16z"/></g><g><g><path class="st2" d="M7.71,20.29c0.39,0.39,0.39,1.03,0,1.42C7.51,21.9,7.26,22,7,22s-0.51-0.1-0.71-0.29l-5-5     c-0.09-0.09-0.16-0.2-0.21-0.32c-0.02-0.05-0.04-0.09-0.04-0.14c-0.05-0.16-0.05-0.34,0-0.5c0-0.05,0.02-0.09,0.04-0.14     c0.05-0.12,0.12-0.23,0.21-0.32l5-5c0.39-0.39,1.03-0.39,1.42,0s0.39,1.03,0,1.42L4.41,15l-1,1l1,1L7.71,20.29z"/></g></g></g></svg>